<?xml version="1.0" encoding="UTF-8"?>
<svg version="1.1" xmlns="http://www.w3.org/2000/svg" width="500" height="500">
<path d="M0 0 C1.20918407 -0.00384115 2.41836815 -0.00768229 3.66419417 -0.01163983 C4.98411767 -0.01077335 6.30404118 -0.00990687 7.66396236 -0.00901413 C9.08705743 -0.01159947 10.51015178 -0.0146131 11.93324512 -0.01801753 C15.83953925 -0.02607107 19.74581498 -0.02787619 23.65211642 -0.028615 C27.8670279 -0.03046845 32.08192991 -0.0380173 36.2968359 -0.04475021 C45.51193431 -0.05832285 54.72702836 -0.06435672 63.9421351 -0.06876087 C69.69890863 -0.07152537 75.45568049 -0.07576313 81.21245289 -0.08026505 C97.15898089 -0.09245683 113.10550754 -0.10275599 129.0520401 -0.10614014 C130.07235256 -0.1063597 131.09266502 -0.10657927 132.14389604 -0.10680549 C133.16661847 -0.10702377 134.1893409 -0.10724204 135.24305493 -0.10746694 C137.31539985 -0.1079104 139.38774477 -0.10835696 141.46008968 -0.10880661 C143.00201418 -0.10913875 143.00201418 -0.10913875 144.57508867 -0.10947761 C161.22371727 -0.11342385 177.87230205 -0.13087298 194.52091373 -0.15416613 C211.62390588 -0.17790133 228.72687606 -0.19034299 245.82988495 -0.19150805 C255.4284567 -0.19242365 265.02697138 -0.19814676 274.62552738 -0.21632767 C282.80061419 -0.231758 290.97562628 -0.23683188 299.1507249 -0.22858956 C303.31840682 -0.2246933 307.4859384 -0.22556236 311.65360165 -0.23964691 C315.47648692 -0.25244759 319.29910985 -0.25113476 323.12199508 -0.2390562 C325.14415187 -0.23619485 327.16631347 -0.2479881 329.18843371 -0.26047826 C340.39398961 -0.20031811 350.60516944 1.42602041 360.51550961 6.83455276 C362.85814057 8.15257822 362.85814057 8.15257822 365.24207211 9.17830276 C386.14002741 18.55689734 401.22233333 37.39943268 409.89441586 58.13142776 C413.30270397 67.22358538 416.01144831 76.33272825 416.02863693 86.11372375 C416.03309478 87.29544057 416.03755262 88.47715738 416.04214555 89.69468379 C416.04186901 91.62859819 416.04186901 91.62859819 416.04158688 93.60158157 C416.04488875 94.9922398 416.048615 96.38289707 416.05272835 97.77355313 C416.06272013 101.59038098 416.06646061 105.4071931 416.06911767 109.22403216 C416.07302926 113.34292563 416.08260716 117.46180674 416.09133053 121.58069229 C416.11107345 131.52719607 416.12115955 141.47370083 416.13005832 151.4202193 C416.13444581 156.10997958 416.13981152 160.79973874 416.14504719 165.48949814 C416.16205923 181.09030676 416.17655102 196.69111468 416.18379593 212.29193115 C416.18570568 216.33852769 416.18762603 220.38512422 416.18958187 224.43172073 C416.19006561 225.43742454 416.19054935 226.44312836 416.19104775 227.47930804 C416.19933912 243.75274858 416.22466104 260.02611541 416.25716255 276.2995238 C416.29029556 293.02624569 416.30825042 309.75293021 416.31144017 326.47968507 C416.31359977 335.86325671 416.32226726 345.24672093 416.34790134 354.63026047 C416.36969398 362.62588983 416.377617 370.62138568 416.36793456 378.61704138 C416.36341418 382.69020339 416.3651426 386.76309043 416.38469601 390.83621407 C416.53395897 423.76442814 411.60561913 450.27135936 388.20691586 475.19392776 C380.7071651 482.45885267 366.64271592 494.13142776 355.89441586 494.13142776 C355.89441586 494.79142776 355.89441586 495.45142776 355.89441586 496.13142776 C354.52149718 496.6165257 353.14594882 497.0941829 351.76941586 497.56892776 C351.00371273 497.8357637 350.23800961 498.10259964 349.44910336 498.37752151 C344.55868654 499.82071792 339.83266717 500.25665002 334.74921703 500.26006222 C333.53121607 500.26328666 332.31321511 500.26651111 331.05830503 500.26983327 C329.71512132 500.26836228 328.37193772 500.26679457 327.02875423 500.26514053 C325.59527169 500.26700947 324.16178966 500.26931051 322.72830844 500.27200586 C318.79341715 500.27812005 314.85854712 500.27799071 310.92365217 500.27681148 C306.6781246 500.27660738 302.43260383 500.28212718 298.18707943 500.28686905 C289.87061686 500.29517422 281.55416138 500.29792384 273.23769501 500.29848143 C266.47686206 500.29895668 259.71603145 500.30101188 252.95519924 500.30418205 C233.78384369 500.31298849 214.61249374 500.31760148 195.44113615 500.31685158 C193.89095394 500.31679164 193.89095394 500.31679164 192.30945492 500.3167305 C191.27473709 500.31668962 190.24001926 500.31664874 189.17394635 500.31660662 C172.40690417 500.31620021 155.63988446 500.32576835 138.87284878 500.33986887 C121.65347998 500.35423542 104.43412213 500.36113889 87.21474719 500.36027509 C77.54865715 500.3599432 67.88259065 500.36268663 58.216506 500.37345314 C49.98608125 500.38256183 41.75569071 500.38473037 33.5252631 500.37794372 C29.32760626 500.3746803 25.13001505 500.37461538 20.93236446 500.38329697 C17.08562801 500.39117082 13.23900916 500.38972151 9.39227554 500.38101283 C8.00466786 500.37947979 6.61705136 500.38128661 5.22945407 500.38687291 C-4.19340922 500.42227938 -13.42058317 500.18442822 -22.10558414 496.13142776 C-22.10558414 495.47142776 -22.10558414 494.81142776 -22.10558414 494.13142776 C-22.81714664 494.0167012 -23.52870914 493.90197464 -24.26183414 493.78377151 C-42.36344031 489.63134263 -58.39172797 473.08888009 -68.10558414 458.13142776 C-76.31520704 444.94326318 -82.21236381 429.83186446 -82.23980522 414.11510372 C-82.24426307 412.92580342 -82.24872091 411.73650312 -82.25331384 410.51116341 C-82.2530373 408.56455299 -82.2530373 408.56455299 -82.25275517 406.5786171 C-82.256057 405.17899658 -82.25978324 403.77937702 -82.26389664 402.37975866 C-82.27388881 398.53819706 -82.27762896 394.69665109 -82.28028595 390.85507834 C-82.28419739 386.70961893 -82.29377526 382.56417179 -82.30249882 378.41872025 C-82.32224145 368.40844665 -82.33232749 358.39817207 -82.34122661 348.38788387 C-82.34561386 343.66860687 -82.35097961 338.94933098 -82.35621548 334.23005486 C-82.37322696 318.53230872 -82.38771915 302.83456328 -82.39496422 287.13680935 C-82.39687398 283.06510988 -82.39879433 278.99341042 -82.40075016 274.92171097 C-82.4012339 273.90976362 -82.40171764 272.89781627 -82.40221604 271.85520384 C-82.41050893 255.47762355 -82.43583367 239.10011647 -82.46833084 222.72256812 C-82.50145575 205.89075991 -82.51941796 189.05898884 -82.52260846 172.22714788 C-82.52476873 162.78380468 -82.53344623 153.34056818 -82.55906963 143.89725685 C-82.5808511 135.85146013 -82.58879068 127.80579605 -82.57910285 119.75997319 C-82.57457937 115.66060731 -82.57632937 111.56151465 -82.5958643 107.46218681 C-82.7388775 75.66154708 -78.42665142 49.803481 -55.10558414 26.13142776 C-40.87114821 11.87318843 -20.64915015 0.0247078 0 0 Z " fill="#F2F3F2" transform="translate(83.10558414459229,-0.13142776489257813)"/>
<path d="M0 0 C1.20918407 -0.00384115 2.41836815 -0.00768229 3.66419417 -0.01163983 C4.98411767 -0.01077335 6.30404118 -0.00990687 7.66396236 -0.00901413 C9.08705743 -0.01159947 10.51015178 -0.0146131 11.93324512 -0.01801753 C15.83953925 -0.02607107 19.74581498 -0.02787619 23.65211642 -0.028615 C27.8670279 -0.03046845 32.08192991 -0.0380173 36.2968359 -0.04475021 C45.51193431 -0.05832285 54.72702836 -0.06435672 63.9421351 -0.06876087 C69.69890863 -0.07152537 75.45568049 -0.07576313 81.21245289 -0.08026505 C97.15898089 -0.09245683 113.10550754 -0.10275599 129.0520401 -0.10614014 C130.07235256 -0.1063597 131.09266502 -0.10657927 132.14389604 -0.10680549 C133.16661847 -0.10702377 134.1893409 -0.10724204 135.24305493 -0.10746694 C137.31539985 -0.1079104 139.38774477 -0.10835696 141.46008968 -0.10880661 C143.00201418 -0.10913875 143.00201418 -0.10913875 144.57508867 -0.10947761 C161.22371727 -0.11342385 177.87230205 -0.13087298 194.52091373 -0.15416613 C211.62390588 -0.17790133 228.72687606 -0.19034299 245.82988495 -0.19150805 C255.4284567 -0.19242365 265.02697138 -0.19814676 274.62552738 -0.21632767 C282.80061419 -0.231758 290.97562628 -0.23683188 299.1507249 -0.22858956 C303.31840682 -0.2246933 307.4859384 -0.22556236 311.65360165 -0.23964691 C315.47648692 -0.25244759 319.29910985 -0.25113476 323.12199508 -0.2390562 C325.14415187 -0.23619485 327.16631347 -0.2479881 329.18843371 -0.26047826 C340.39398961 -0.20031811 350.60516944 1.42602041 360.51550961 6.83455276 C362.85814057 8.15257822 362.85814057 8.15257822 365.24207211 9.17830276 C386.14002741 18.55689734 401.22233333 37.39943268 409.89441586 58.13142776 C413.30270397 67.22358538 416.01144831 76.33272825 416.02863693 86.11372375 C416.03309478 87.29544057 416.03755262 88.47715738 416.04214555 89.69468379 C416.04186901 91.62859819 416.04186901 91.62859819 416.04158688 93.60158157 C416.04488875 94.9922398 416.048615 96.38289707 416.05272835 97.77355313 C416.06272013 101.59038098 416.06646061 105.4071931 416.06911767 109.22403216 C416.07302926 113.34292563 416.08260716 117.46180674 416.09133053 121.58069229 C416.11107345 131.52719607 416.12115955 141.47370083 416.13005832 151.4202193 C416.13444581 156.10997958 416.13981152 160.79973874 416.14504719 165.48949814 C416.16205923 181.09030676 416.17655102 196.69111468 416.18379593 212.29193115 C416.18570568 216.33852769 416.18762603 220.38512422 416.18958187 224.43172073 C416.19006561 225.43742454 416.19054935 226.44312836 416.19104775 227.47930804 C416.19933912 243.75274858 416.22466104 260.02611541 416.25716255 276.2995238 C416.29029556 293.02624569 416.30825042 309.75293021 416.31144017 326.47968507 C416.31359977 335.86325671 416.32226726 345.24672093 416.34790134 354.63026047 C416.36969398 362.62588983 416.377617 370.62138568 416.36793456 378.61704138 C416.36341418 382.69020339 416.3651426 386.76309043 416.38469601 390.83621407 C416.53395897 423.76442814 411.60561913 450.27135936 388.20691586 475.19392776 C380.7071651 482.45885267 366.64271592 494.13142776 355.89441586 494.13142776 C355.89441586 494.79142776 355.89441586 495.45142776 355.89441586 496.13142776 C354.52149718 496.6165257 353.14594882 497.0941829 351.76941586 497.56892776 C351.00371273 497.8357637 350.23800961 498.10259964 349.44910336 498.37752151 C344.55868654 499.82071792 339.83266717 500.25665002 334.74921703 500.26006222 C333.53121607 500.26328666 332.31321511 500.26651111 331.05830503 500.26983327 C329.71512132 500.26836228 328.37193772 500.26679457 327.02875423 500.26514053 C325.59527169 500.26700947 324.16178966 500.26931051 322.72830844 500.27200586 C318.79341715 500.27812005 314.85854712 500.27799071 310.92365217 500.27681148 C306.6781246 500.27660738 302.43260383 500.28212718 298.18707943 500.28686905 C289.87061686 500.29517422 281.55416138 500.29792384 273.23769501 500.29848143 C266.47686206 500.29895668 259.71603145 500.30101188 252.95519924 500.30418205 C233.78384369 500.31298849 214.61249374 500.31760148 195.44113615 500.31685158 C193.89095394 500.31679164 193.89095394 500.31679164 192.30945492 500.3167305 C191.27473709 500.31668962 190.24001926 500.31664874 189.17394635 500.31660662 C172.40690417 500.31620021 155.63988446 500.32576835 138.87284878 500.33986887 C121.65347998 500.35423542 104.43412213 500.36113889 87.21474719 500.36027509 C77.54865715 500.3599432 67.88259065 500.36268663 58.216506 500.37345314 C49.98608125 500.38256183 41.75569071 500.38473037 33.5252631 500.37794372 C29.32760626 500.3746803 25.13001505 500.37461538 20.93236446 500.38329697 C17.08562801 500.39117082 13.23900916 500.38972151 9.39227554 500.38101283 C8.00466786 500.37947979 6.61705136 500.38128661 5.22945407 500.38687291 C-4.19340922 500.42227938 -13.42058317 500.18442822 -22.10558414 496.13142776 C-22.10558414 495.47142776 -22.10558414 494.81142776 -22.10558414 494.13142776 C-22.81714664 494.0167012 -23.52870914 493.90197464 -24.26183414 493.78377151 C-42.36344031 489.63134263 -58.39172797 473.08888009 -68.10558414 458.13142776 C-76.31520704 444.94326318 -82.21236381 429.83186446 -82.23980522 414.11510372 C-82.24426307 412.92580342 -82.24872091 411.73650312 -82.25331384 410.51116341 C-82.2530373 408.56455299 -82.2530373 408.56455299 -82.25275517 406.5786171 C-82.256057 405.17899658 -82.25978324 403.77937702 -82.26389664 402.37975866 C-82.27388881 398.53819706 -82.27762896 394.69665109 -82.28028595 390.85507834 C-82.28419739 386.70961893 -82.29377526 382.56417179 -82.30249882 378.41872025 C-82.32224145 368.40844665 -82.33232749 358.39817207 -82.34122661 348.38788387 C-82.34561386 343.66860687 -82.35097961 338.94933098 -82.35621548 334.23005486 C-82.37322696 318.53230872 -82.38771915 302.83456328 -82.39496422 287.13680935 C-82.39687398 283.06510988 -82.39879433 278.99341042 -82.40075016 274.92171097 C-82.4012339 273.90976362 -82.40171764 272.89781627 -82.40221604 271.85520384 C-82.41050893 255.47762355 -82.43583367 239.10011647 -82.46833084 222.72256812 C-82.50145575 205.89075991 -82.51941796 189.05898884 -82.52260846 172.22714788 C-82.52476873 162.78380468 -82.53344623 153.34056818 -82.55906963 143.89725685 C-82.5808511 135.85146013 -82.58879068 127.80579605 -82.57910285 119.75997319 C-82.57457937 115.66060731 -82.57632937 111.56151465 -82.5958643 107.46218681 C-82.7388775 75.66154708 -78.42665142 49.803481 -55.10558414 26.13142776 C-40.87114821 11.87318843 -20.64915015 0.0247078 0 0 Z M-43.22667789 51.60408401 C-53.28628314 65.13540334 -56.73248132 79.90919454 -56.61351871 96.50751114 C-56.61814239 97.88674386 -56.62450503 99.26597163 -56.63242769 100.64518934 C-56.6489436 104.38867275 -56.64095686 108.13174209 -56.62848282 111.8752259 C-56.61936083 115.93054777 -56.63343722 119.9858028 -56.6444025 124.04111099 C-56.66211717 131.9673697 -56.65837923 139.89347623 -56.64675194 147.81974071 C-56.63768934 154.26662653 -56.6365058 160.71346995 -56.64084721 167.16036034 C-56.64146014 168.08067908 -56.64207307 169.00099781 -56.64270458 169.949205 C-56.64398358 171.8192883 -56.64528044 173.68937159 -56.64659494 175.55945487 C-56.65798025 193.06391937 -56.64491962 210.56829986 -56.62339348 228.07275058 C-56.60552735 243.06460105 -56.60862659 258.05632758 -56.62706852 273.04817581 C-56.64851669 290.49182455 -56.65687867 307.93539977 -56.64461946 325.37905985 C-56.64334538 327.24226637 -56.64208789 329.10547289 -56.64084721 330.96867943 C-56.6402301 331.88521605 -56.639613 332.80175267 -56.6389772 333.74606312 C-56.6355359 340.17832268 -56.64132628 346.61053527 -56.65076542 353.04278755 C-56.66203089 360.89152233 -56.65885051 368.74009728 -56.63764244 376.58881395 C-56.62719235 380.58684079 -56.62290572 384.58460199 -56.63623905 388.58262634 C-56.71973763 415.94250011 -54.26771307 437.04511357 -34.58263493 457.6617012 C-21.24440172 470.93379441 -3.46529599 474.44353558 14.59329891 474.3988533 C15.95996264 474.40259625 17.32662423 474.40720033 18.69328249 474.41258395 C22.42514656 474.42474994 26.15692056 474.42456109 29.88879991 474.4221952 C33.9230649 474.42178539 37.95730164 474.43284176 41.99155331 474.44231033 C49.88703702 474.45888659 57.78249085 474.46441837 65.67799051 474.46553509 C72.10019738 474.46648725 78.52239444 474.47060595 84.9445982 474.47693634 C103.17653052 474.49454025 121.40843934 474.50377665 139.64038022 474.50227539 C140.62220514 474.50219548 141.60403007 474.50211557 142.61560726 474.50203323 C143.59863938 474.50195147 144.58167151 474.50186971 145.59449248 474.50178547 C161.51660957 474.50097302 177.43863195 474.52010268 193.36072166 474.54830997 C209.7327419 474.57708405 226.10471603 474.59084775 242.47676218 474.58912241 C251.65899588 474.58846003 260.84113033 474.59388552 270.02334118 474.61547852 C277.84290363 474.63375005 285.66232184 474.63798892 293.48189647 474.62445967 C297.46572334 474.61795975 301.44927395 474.61770397 305.433074 474.63516617 C332.47392316 475.37557729 332.47392316 475.37557729 357.14441586 465.63142776 C357.79788998 465.20200882 358.4513641 464.77258987 359.12464046 464.33015823 C376.28889081 452.63592591 386.00663562 436.43991563 389.89441586 416.13142776 C390.29419259 411.44788867 390.30458323 406.79448107 390.28209591 402.09592056 C390.28627815 400.71714119 390.29176052 399.33836527 390.29841572 397.95959562 C390.31277222 394.20361032 390.30865662 390.44784626 390.30124891 386.69184935 C390.29649511 382.62835845 390.30904648 378.56491391 390.31926632 374.50143814 C390.33641606 366.55374372 390.33730236 358.6061285 390.33205342 350.65842039 C390.32800362 344.19570924 390.32946486 337.7330214 390.33480167 331.27031136 C390.3355501 330.34871998 390.33629852 329.4271286 390.33706962 328.47761021 C390.33860117 326.60510512 390.34013952 324.73260004 390.34168459 322.86009496 C390.35539559 305.32141568 390.34998161 287.78278108 390.33849937 270.24410283 C390.32856673 254.21661805 390.3415107 238.18924871 390.36543357 222.16178174 C390.3898447 205.68235622 390.39942759 189.20298443 390.39278084 172.7235412 C390.38929332 163.48051784 390.39148989 154.23758324 390.40903187 144.99457359 C390.42377897 137.12702335 390.42435648 129.2596244 390.40696096 121.39207704 C390.39846952 117.38228575 390.39625568 113.37276447 390.41161251 109.36298752 C390.42552526 105.68458608 390.42061308 102.00668427 390.40137327 98.32831126 C390.39587595 96.38398634 390.40982956 94.43963557 390.42472738 92.49535996 C390.26878294 73.71493367 381.99830465 56.42386172 368.89441586 43.13142776 C354.69902867 30.02644017 337.15879148 25.82100252 318.31578732 25.8572731 C316.94998622 25.85281422 315.58418769 25.84749805 314.21839291 25.84140438 C310.48427419 25.82729175 306.75023898 25.8255598 303.01609743 25.82600129 C298.98112973 25.82434709 294.94619584 25.81126932 290.9112463 25.7998085 C282.09693691 25.77700542 273.28265168 25.76904288 264.46831679 25.76398206 C258.95857782 25.76071943 253.44884579 25.75419352 247.93911076 25.74698067 C232.66672746 25.72742049 217.3943506 25.71101299 202.12195396 25.70810413 C201.14554811 25.70791656 200.16914226 25.70772899 199.16314835 25.70753574 C197.18396699 25.7071695 195.20478564 25.7068058 193.22560429 25.70644463 C192.24321396 25.70626182 191.26082363 25.70607901 190.2486639 25.70589066 C189.26506628 25.70571011 188.28146866 25.70552956 187.26806504 25.70534354 C171.33939779 25.70180381 155.41086589 25.6747914 139.48224556 25.63739277 C123.10573643 25.59925208 106.72929437 25.57994623 90.35273987 25.57964462 C81.16711078 25.57906133 71.98164315 25.57065247 62.79605579 25.54164696 C54.97278931 25.51705583 47.14974318 25.50990208 39.32644843 25.52489448 C35.34054295 25.53203204 31.35507191 25.53134373 27.36921597 25.50848389 C-0.56005536 25.35785191 -24.10444928 29.00508656 -43.22667789 51.60408401 Z " fill="#96C831" transform="translate(83.10558414459229,-0.13142776489257813)"/>
<path d="M0 0 C0.33 0 0.66 0 1 0 C1.125 7.625 1.125 7.625 0 11 C-0.09440457 12.85392927 -0.12913678 14.71111299 -0.13142776 16.56744289 C-0.13526891 17.73295317 -0.13911005 18.89846345 -0.1430676 20.09929222 C-0.14176787 22.0291078 -0.14176787 22.0291078 -0.14044189 23.99790955 C-0.14302498 25.37375537 -0.14603798 26.74960044 -0.1494453 28.12544447 C-0.15752574 31.91503005 -0.15930546 35.70459669 -0.16004276 39.49418986 C-0.1618916 43.57825456 -0.16943827 47.6623094 -0.17617798 51.74636841 C-0.18977114 60.68266055 -0.19578808 69.61894821 -0.20018864 78.55524898 C-0.20295045 84.13628087 -0.2071878 89.71731103 -0.21169281 95.29834175 C-0.22388876 110.75235224 -0.23418613 126.20636135 -0.2375679 141.66037655 C-0.23778747 142.64990221 -0.23800703 143.63942787 -0.23823325 144.65893916 C-0.23845153 145.65083692 -0.23866981 146.64273469 -0.2388947 147.66468996 C-0.23933817 149.67465333 -0.23978473 151.68461671 -0.24023438 153.69458008 C-0.2404558 154.6915918 -0.24067723 155.68860352 -0.24090537 156.71582771 C-0.24485024 172.85770092 -0.26229331 188.9995289 -0.2855939 205.14138465 C-0.30932657 221.71656127 -0.32177069 238.29171521 -0.32293582 254.86690909 C-0.32385172 264.17206474 -0.32958217 273.47716153 -0.34775543 282.78230095 C-0.36318255 290.70935663 -0.36826165 298.63633527 -0.36001733 306.56340312 C-0.35611952 310.60537551 -0.35699762 314.64719288 -0.37107468 318.68914604 C-0.38386652 322.39614164 -0.38257015 326.10286658 -0.37048396 329.80986208 C-0.36761963 331.772258 -0.37942283 333.73465883 -0.39190602 335.69701713 C-0.35315892 342.68800631 0.41026217 348.78201539 2.45432591 355.48151118 C3.02166507 358.09999234 2.88234179 359.50384689 2 362 C1.35105763 359.93847611 0.7059736 357.87573742 0.0625 355.8125 C-0.29714844 354.66394531 -0.65679688 353.51539063 -1.02734375 352.33203125 C-2.4341789 347.51263214 -3.12520861 343.22218596 -3.13142776 338.1964922 C-3.13526891 337.02924982 -3.13911005 335.86200744 -3.1430676 334.65939409 C-3.14220112 333.38120276 -3.14133463 332.10301143 -3.14044189 330.78608704 C-3.14302658 329.41121452 -3.14604003 328.03634275 -3.1494453 326.66147202 C-3.15750638 322.88394547 -3.15930437 319.10643793 -3.16004276 315.32890379 C-3.16189487 311.25445588 -3.16944301 307.18001779 -3.17617798 303.10557556 C-3.18975554 294.19639478 -3.19578514 285.28721851 -3.20018864 276.37802911 C-3.20295206 270.81408801 -3.2071896 265.25014865 -3.21169281 259.68620872 C-3.22388478 244.27843618 -3.2341842 228.87066503 -3.2375679 213.46288776 C-3.23778747 212.47689683 -3.23800703 211.4909059 -3.23823325 210.47503645 C-3.23845153 209.48669892 -3.23866981 208.49836138 -3.2388947 207.48007423 C-3.23933817 205.47735743 -3.23978473 203.47464063 -3.24023438 201.47192383 C-3.2404558 200.47850911 -3.24067723 199.48509438 -3.24090537 198.46157619 C-3.24485286 182.36697791 -3.2623057 166.27242493 -3.2855939 150.17784414 C-3.30931568 133.65007439 -3.32177013 117.12232735 -3.32293582 100.5945403 C-3.32385212 91.31630594 -3.32959311 82.03813059 -3.34775543 72.75991249 C-3.36316757 64.85883248 -3.36827031 56.95782971 -3.36001733 49.05673752 C-3.35611476 45.02715047 -3.35702116 40.99771894 -3.37107468 36.96815109 C-3.38383717 33.27490923 -3.38259567 29.58193938 -3.37048396 25.88869777 C-3.36761008 23.92889526 -3.37944494 21.96908794 -3.39190602 20.00932294 C-3.35185525 12.83598666 -2.54481664 6.72715669 0 0 Z " fill="#EFF8E4" transform="translate(30,72)"/>
<path d="M0 0 C4.96087595 7.44131392 4.2841554 15.99767349 4.25396729 24.61505127 C4.25627402 25.99678993 4.25945198 27.37852737 4.26342177 28.76026225 C4.27174871 32.54262428 4.26765413 36.32488502 4.26144934 40.10724735 C4.25691741 44.19175455 4.26391217 48.27624453 4.26940918 52.36074829 C4.27829595 60.35542485 4.27638463 68.35006383 4.2705839 76.34474185 C4.26606587 82.84051575 4.26545511 89.33627912 4.26763153 95.83205414 C4.267938 96.75678598 4.26824446 97.68151782 4.26856022 98.63427185 C4.26919967 100.51283465 4.26984809 102.39139745 4.2705054 104.26996025 C4.27620627 121.87796838 4.26965395 139.48595567 4.25890467 157.09396037 C4.24996345 172.208484 4.25152637 187.32297692 4.26074219 202.4375 C4.2714389 219.9890057 4.27566321 237.54049317 4.26951766 255.09200168 C4.26888055 256.96240409 4.26825181 258.8328065 4.26763153 260.70320892 C4.26732298 261.623499 4.26701443 262.54378908 4.26669653 263.49196674 C4.26496823 269.98337015 4.26788747 276.47476201 4.27259064 282.96616364 C4.27819255 290.8717273 4.27669733 298.77725124 4.26602915 306.68281034 C4.26076404 310.71771465 4.25873002 314.75255265 4.26532745 318.78745651 C4.27127134 322.47837005 4.26803778 326.16915558 4.25737235 329.86005744 C4.25406744 331.83308881 4.26062307 333.80612901 4.26748681 335.7791512 C4.25966357 337.52887829 4.25966357 337.52887829 4.25168228 339.3139534 C4.25135758 340.32271066 4.25103287 341.33146792 4.25069833 342.37079358 C3.9945076 345.05760171 3.37528355 346.70203092 2 349 C1.99826375 348.29055308 1.9965275 347.58110615 1.99473864 346.85016084 C1.89177726 304.83043121 1.78367922 262.81071754 1.66888306 220.7910185 C1.65511299 215.74902546 1.64138597 210.7070323 1.62768555 205.66503906 C1.62495724 204.66124174 1.62222894 203.65744442 1.61941796 202.623229 C1.57530706 186.35615707 1.53468578 170.08907819 1.49534739 153.8219941 C1.45492448 137.13846105 1.41076716 120.45494092 1.36312145 103.77142692 C1.33382467 93.47148913 1.30746319 83.17155233 1.28482103 72.87159774 C1.26902937 65.81470592 1.24962016 58.75782992 1.22733159 51.70095566 C1.21456789 47.62562469 1.20343235 43.55030589 1.19658089 39.47496033 C1.19027792 35.74674399 1.1794504 32.01856967 1.1649667 28.29037639 C1.15841626 26.29708966 1.15675913 24.30378873 1.15525442 22.3104918 C1.14977998 21.13210669 1.14430554 19.95372159 1.1386652 18.73962784 C1.13600716 17.72045847 1.13334911 16.70128911 1.13061053 15.65123582 C1.01305978 13.26509767 0.63644467 11.28859227 0 9 C-0.06548492 7.41788427 -0.08578381 5.83329919 -0.0625 4.25 C-0.05347656 3.45078125 -0.04445313 2.6515625 -0.03515625 1.828125 C-0.02355469 1.22484375 -0.01195312 0.6215625 0 0 Z " fill="#E2F2C2" transform="translate(469,71)"/>
<path d="M0 0 C0.33 0 0.66 0 1 0 C0.99962028 0.70277431 0.99924056 1.40554862 0.99884933 2.12961912 C0.97644882 43.82441647 0.95930211 85.51921312 0.94893467 127.21401528 C0.94768403 132.22552191 0.9463897 137.23702854 0.94506836 142.24853516 C0.94480605 143.24619414 0.94454374 144.24385312 0.94427348 145.27174419 C0.93992765 161.40462034 0.93204608 177.53749291 0.9228472 193.67036694 C0.91348043 210.23642577 0.90793799 226.80248273 0.90591151 243.3685441 C0.90454256 253.58247022 0.90022604 263.79638622 0.89208353 274.01030922 C0.88677876 281.0238266 0.88520417 288.03733878 0.88649862 295.05085802 C0.88713619 299.09122874 0.88619082 303.13158184 0.88079453 307.17194939 C0.87587563 310.88227708 0.87571614 314.59257553 0.87910111 318.30290467 C0.87971396 320.25750679 0.87544857 322.21210864 0.87091869 324.16670561 C0.88184091 330.74288753 1.06201706 337.28874781 1.44501591 343.85262299 C1.48378616 344.55090105 1.52255641 345.24917911 1.56250152 345.96861711 C1.51691049 349.27101308 1.51691049 349.27101308 3 352 C3.04092937 354.33297433 3.04241723 356.66705225 3 359 C3.66 359 4.32 359 5 359 C5.33 362.63 5.66 366.26 6 370 C3.81413413 366.72120119 2.99791304 363.97353743 1.9375 360.1875 C1.59589844 358.98480469 1.25429688 357.78210938 0.90234375 356.54296875 C-0.4353517 351.29063206 -1.12498705 346.3733156 -1.12584114 340.95294952 C-1.12844889 339.75686553 -1.13105664 338.56078155 -1.13374341 337.32845259 C-1.13151268 336.02320899 -1.12928196 334.71796538 -1.12698364 333.37316895 C-1.12813626 331.96570944 -1.12972473 330.55825023 -1.13171089 329.15079165 C-1.13588485 325.28798657 -1.13382223 321.42520621 -1.13072467 317.56240106 C-1.12846294 313.39466195 -1.13195405 309.2269271 -1.13470459 305.05918884 C-1.13915296 296.89646868 -1.13818995 288.7337577 -1.13529195 280.57103717 C-1.13303427 273.93745846 -1.13272698 267.30388233 -1.13381577 260.67030334 C-1.133969 259.72645044 -1.13412223 258.78259753 -1.13428011 257.81014302 C-1.13459983 255.89276961 -1.13492404 253.97539621 -1.1352527 252.0580228 C-1.13810476 234.075608 -1.13482475 216.09319831 -1.12945233 198.11078435 C-1.12498454 182.67850863 -1.12576055 167.24624043 -1.13037109 151.81396484 C-1.13572168 133.89622419 -1.13783009 115.97848801 -1.13475883 98.06074667 C-1.13444028 96.15039667 -1.13412591 94.24004666 -1.13381577 92.32969666 C-1.13366149 91.38974925 -1.13350721 90.44980185 -1.13334826 89.48137119 C-1.13248457 82.85517919 -1.13394283 76.22899002 -1.13629532 69.60279846 C-1.13909888 61.52853879 -1.13834327 53.45428883 -1.13301457 45.38003027 C-1.1303851 41.25984768 -1.12935978 37.1396813 -1.13266373 33.01949883 C-1.13564215 29.24825102 -1.13400801 25.47703447 -1.12868617 21.70578951 C-1.12703896 19.69437544 -1.13030581 17.68295921 -1.13374341 15.67154741 C-1.13113566 14.47546342 -1.12852791 13.27937943 -1.12584114 12.04705048 C-1.12567879 11.01670417 -1.12551644 9.98635787 -1.12534916 8.92478895 C-0.99485389 5.87992502 -0.56174112 2.9929161 0 0 Z " fill="#A3C563" transform="translate(2,73)"/>
<path d="M0 0 C2.62585368 2.62585368 3.37726012 5.55012655 4.5 9 C4.71269531 9.62261719 4.92539062 10.24523438 5.14453125 10.88671875 C8.47836694 20.97003775 9.28837748 30.4734271 9.24050903 41.07229614 C9.24138258 42.47923481 9.2431363 43.88617315 9.24568737 45.29310977 C9.25013562 49.13569207 9.24219216 52.97816177 9.23213124 56.82072973 C9.22346247 60.97328516 9.22641932 65.12583467 9.22793579 69.27839661 C9.22898248 76.46518574 9.2227285 83.65193844 9.21146011 90.83871841 C9.19517874 101.22948196 9.18999441 111.62022796 9.18748413 122.01100288 C9.18311116 138.870952 9.16981288 155.73088172 9.15087891 172.59082031 C9.13250979 188.96484277 9.11835833 205.33885994 9.10986328 221.71289062 C9.10933783 222.72285489 9.10881239 223.73281916 9.10827102 224.7733884 C9.10566087 229.84028218 9.10313347 234.90717599 9.10064721 239.97406983 C9.07992712 281.98272671 9.04471244 323.99136224 9 366 C8.67 366 8.34 366 8 366 C7.99902319 365.29223431 7.99804638 364.58446862 7.99703997 363.85525548 C7.93872627 321.87662821 7.86489798 279.89805305 7.77101372 237.91948953 C7.759746 232.87536306 7.74860748 227.83123631 7.73754883 222.78710938 C7.73534514 221.78294454 7.73314146 220.77877971 7.730871 219.74418564 C7.69553037 203.50003735 7.67064799 187.2558891 7.64965298 171.01171665 C7.62786515 154.33489535 7.59478644 137.65812379 7.55129844 120.98134482 C7.52483308 110.69677567 7.50710006 100.41226847 7.50065396 90.12766697 C7.4953844 83.06833799 7.47911496 76.00908686 7.45433434 68.94979964 C7.44037293 64.88129201 7.43112837 60.81292355 7.43499184 56.74439049 C7.43842969 53.01061918 7.42788038 49.27714392 7.40676448 45.54343314 C7.39909338 43.57146177 7.40589283 41.59944994 7.41341704 39.627478 C7.34576325 31.02973524 6.09561729 23.33222001 4 15 C3.34 15 2.68 15 2 15 C1.66223316 13.2508503 1.32996329 11.50063855 1 9.75 C0.814375 8.77546875 0.62875 7.8009375 0.4375 6.796875 C0 4 0 4 0 0 Z " fill="#A8C870" transform="translate(490,53)"/>
<path d="M0 0 C0.33 0 0.66 0 1 0 C1.25166848 7.42422016 1.25166848 7.42422016 0.00415003 10.27835578 C-1.11148116 13.30215809 -1.25441224 15.56859031 -1.26171303 18.78458881 C-1.26917852 19.94754799 -1.27664401 21.11050717 -1.28433573 22.30870754 C-1.282401 23.58204721 -1.28046626 24.85538689 -1.2784729 26.16731262 C-1.28347642 27.53694018 -1.28935238 28.90656478 -1.29602563 30.27618521 C-1.31183295 34.03882453 -1.31525671 37.80138919 -1.31667423 41.56405771 C-1.320367 45.62197077 -1.33552186 49.67984281 -1.34928894 53.73773193 C-1.37156946 60.76798384 -1.38657798 67.79822117 -1.39665604 74.82850075 C-1.41123773 84.99311636 -1.43677312 95.15768119 -1.46498732 105.32226702 C-1.51046458 121.81338267 -1.54707553 138.30450563 -1.578125 154.7956543 C-1.60830671 170.81584964 -1.64265525 186.83602711 -1.68261719 202.85620117 C-1.68507874 203.84358309 -1.68754028 204.83096501 -1.69007643 205.84826759 C-1.70245095 210.80164218 -1.7149075 215.75501655 -1.72740483 220.70839083 C-1.83098661 261.80556902 -1.92018526 302.90276922 -2 344 C-2.33 344 -2.66 344 -3 344 C-3.06867895 301.62060441 -3.12153531 259.24121524 -3.15319599 216.86177502 C-3.15694807 211.85755695 -3.16083104 206.853339 -3.16479492 201.84912109 C-3.16558185 200.85287886 -3.16636878 199.85663663 -3.16717956 198.83020525 C-3.18023054 182.70296034 -3.2038827 166.57574755 -3.23145839 150.44852169 C-3.25952114 133.89831379 -3.2761781 117.34812269 -3.28226548 100.79789197 C-3.28638011 90.58698422 -3.29937208 80.37616723 -3.3237494 70.16528742 C-3.33961731 63.16161605 -3.34439796 56.15799154 -3.34050413 49.15430351 C-3.33858423 45.11462087 -3.34151035 41.07509675 -3.35761642 37.03544235 C-3.37227083 33.33275566 -3.37291669 29.63033331 -3.36269668 25.92763416 C-3.3608393 23.96261776 -3.37372827 21.99760422 -3.38724393 20.03263342 C-3.35098964 12.85014719 -2.55055589 6.73516197 0 0 Z " fill="#DBF1AF" transform="translate(30,72)"/>
<path d="M0 0 C1.16246048 -0.00199105 2.32492095 -0.0039821 3.52260751 -0.00603348 C4.80566382 -0.00312064 6.08872012 -0.0002078 7.41065693 0.00279331 C8.78268002 0.00235746 10.15470303 0.00148229 11.52672559 0.00020415 C15.30528063 -0.00203804 19.08380748 0.00197672 22.86235893 0.00698221 C26.93391888 0.01129047 31.00547717 0.00984002 35.07703876 0.00907993 C42.1340717 0.00855494 49.19109541 0.0116992 56.24812603 0.01731777 C66.4514764 0.02543606 76.6548223 0.02804833 86.85817555 0.02930576 C103.41142322 0.03149576 119.96466596 0.03815445 136.51791096 0.04760838 C152.60026748 0.05678383 168.68262266 0.06386401 184.76498127 0.06811619 C186.25132281 0.06851027 186.25132281 0.06851027 187.76769146 0.06891232 C192.7385912 0.07021733 197.70949095 0.07148105 202.68039072 0.07272422 C243.93556039 0.08309522 285.19072465 0.10071213 326.44588947 0.12304783 C326.44588947 0.45304783 326.44588947 0.78304783 326.44588947 1.12304783 C325.4097151 1.1256522 325.4097151 1.1256522 324.35260791 1.12830919 C283.44355032 1.23125771 242.53450917 1.33935294 201.62548308 1.45416477 C196.71739274 1.46793493 191.80930228 1.48166194 186.90121174 1.49536228 C185.43549559 1.49945474 185.43549559 1.49945474 183.94016901 1.50362987 C168.10244571 1.5477477 152.26471527 1.58836657 136.42697944 1.62770044 C120.18528576 1.66811514 103.94360537 1.7122712 87.7019313 1.75992638 C77.67376953 1.7892316 67.64560879 1.81559169 57.61742971 1.8382268 C50.74789898 1.85401146 43.87838454 1.8734185 37.00887188 1.89571624 C33.04100394 1.90848725 29.07314857 1.91962078 25.10526562 1.92646694 C21.47640697 1.93276327 17.84759166 1.94358318 14.21875677 1.95808113 C12.27642687 1.96464168 10.33408233 1.96628991 8.39174193 1.96779341 C7.24669843 1.97326785 6.10165493 1.97874229 4.92191315 1.98438263 C3.92970392 1.98704067 2.9374947 1.98969871 1.91521853 1.9924373 C-0.68944011 2.02055904 -0.68944011 2.02055904 -3.55411053 3.12304783 C-5.11529481 3.19045648 -6.67913573 3.20819239 -8.24161053 3.18554783 C-9.45397381 3.17201267 -9.45397381 3.17201267 -10.69082928 3.15820408 C-11.6131535 3.14080173 -11.6131535 3.14080173 -12.55411053 3.12304783 C-8.21226272 0.87726448 -4.89650249 -0.00184565 0 0 Z " fill="#DCEBBA" transform="translate(88.55411052703857,25.876952171325684)"/>
<path d="M0 0 C0.33 0 0.66 0 1 0 C1.06058594 1.14339844 1.12117187 2.28679687 1.18359375 3.46484375 C1.26798428 4.95574305 1.35263302 6.44662775 1.4375 7.9375 C1.47681641 8.69224609 1.51613281 9.44699219 1.55664062 10.22460938 C1.44038024 13.91944187 1.44038024 13.91944187 3 17 C3.04092937 19.33297433 3.04241723 21.66705225 3 24 C3.66 24 4.32 24 5 24 C5.33 27.63 5.66 31.26 6 35 C-0.98103871 24.52844194 -0.49132802 12.03753655 0 0 Z " fill="#A0C44C" transform="translate(2,408)"/>
<path d="M0 0 C2.65037925 2.65037925 3.46956275 5.64522848 4.625 9.125 C4.85082764 9.79990479 5.07665527 10.47480957 5.30932617 11.17016602 C6.85741998 16.01984851 7.51395991 19.9631929 7 25 C4.70366176 21.55549263 4.45983515 19.06187717 4 15 C3.34 15 2.68 15 2 15 C1.66223316 13.2508503 1.32996329 11.50063855 1 9.75 C0.814375 8.77546875 0.62875 7.8009375 0.4375 6.796875 C0 4 0 4 0 0 Z " fill="#A3C855" transform="translate(490,53)"/>
<path d="M0 0 C-0.85271484 0.14695313 -0.85271484 0.14695313 -1.72265625 0.296875 C-5.71439535 1.0698996 -9.06275828 1.83840241 -12.5 4.0625 C-16.44036282 6.55651788 -20.42084135 6.79232841 -25 7 C-19.31711528 1.31711528 -7.77624592 -2.47345122 0 0 Z " fill="#C4DE8B" transform="translate(81,1)"/>
<path d="M0 0 C8.3151234 -0.4499165 16.04481519 0.44590532 24 3 C24.66 3.66 25.32 4.32 26 5 C25.44014404 4.93417725 24.88028809 4.86835449 24.3034668 4.80053711 C21.76554945 4.50603026 19.2265959 4.22165875 16.6875 3.9375 C15.80642578 3.83373047 14.92535156 3.72996094 14.01757812 3.62304688 C13.17001953 3.52958984 12.32246094 3.43613281 11.44921875 3.33984375 C10.66893311 3.25081787 9.88864746 3.16179199 9.0847168 3.07006836 C6.80305996 2.87235945 6.80305996 2.87235945 4 4 C3.67 3.34 3.34 2.68 3 2 C2.01 1.34 1.02 0.68 0 0 Z " fill="#C5E086" transform="translate(412,0)"/>
<path d="M0 0 C3.27289431 0.24887401 6.54253728 0.52786308 9.8125 0.8125 C10.74126953 0.88275391 11.67003906 0.95300781 12.62695312 1.02539062 C13.9659668 1.14624023 13.9659668 1.14624023 15.33203125 1.26953125 C16.15421143 1.33760986 16.9763916 1.40568848 17.82348633 1.47583008 C20.37454731 2.09020225 21.34550078 3.0085165 23 5 C15.0526007 5.29434812 7.28522467 4.39977151 0 1 C0 0.67 0 0.34 0 0 Z " fill="#C7E28B" transform="translate(61,495)"/>
<path d="M0 0 C0.66 0 1.32 0 2 0 C0.51637716 6.26418531 -3.24162156 10.91513505 -7 16 C-7.33 14.68 -7.66 13.36 -8 12 C-7.34 12 -6.68 12 -6 12 C-5.896875 10.906875 -5.79375 9.81375 -5.6875 8.6875 C-5 5 -5 5 -3.5625 3.0625 C-2 2 -2 2 0 2 C0 1.34 0 0.68 0 0 Z " fill="#A3CA51" transform="translate(487,449)"/>
<path d="M0 0 C-6.95068039 2.79080349 -13.54508438 3.63419196 -21 4 C-17.54814665 0.85094081 -14.50950382 0.3461393 -9.9375 -0.25 C-8.70902344 -0.42015625 -7.48054688 -0.5903125 -6.21484375 -0.765625 C-3 -1 -3 -1 0 0 Z " fill="#CEE59B" transform="translate(439,496)"/>
<path d="M0 0 C2.50432121 3.75648181 3.12573573 6.25949019 3.09765625 10.66796875 C3.09282227 12.00698242 3.09282227 12.00698242 3.08789062 13.37304688 C3.07951172 14.30181641 3.07113281 15.23058594 3.0625 16.1875 C3.05798828 17.12787109 3.05347656 18.06824219 3.04882812 19.03710938 C3.03704626 21.35813712 3.02059558 23.67903644 3 26 C2.67 26 2.34 26 2 26 C1.93941406 25.10796875 1.87882812 24.2159375 1.81640625 23.296875 C1.73261719 22.12640625 1.64882813 20.9559375 1.5625 19.75 C1.48128906 18.58984375 1.40007812 17.4296875 1.31640625 16.234375 C1.09582259 13.16213162 1.09582259 13.16213162 0.46875 10.875 C-0.09629466 8.61482138 -0.096706 6.57600833 -0.0625 4.25 C-0.05347656 3.45078125 -0.04445313 2.6515625 -0.03515625 1.828125 C-0.02355469 1.22484375 -0.01195312 0.6215625 0 0 Z " fill="#E4F2CC" transform="translate(469,71)"/>
<path d="M0 0 C1.60080151 4.00200378 0.29279692 7.04556236 -1 11 C-2.32 11 -3.64 11 -5 11 C-5.33 12.32 -5.66 13.64 -6 15 C-6.33 14.34 -6.66 13.68 -7 13 C-5.8203125 10.21484375 -5.8203125 10.21484375 -4.125 6.9375 C-3.57070312 5.85339844 -3.01640625 4.76929688 -2.4453125 3.65234375 C-1 1 -1 1 0 0 Z " fill="#ABCE5D" transform="translate(15,42)"/>
<path d="M0 0 C-0.33 0.99 -0.66 1.98 -1 3 C-6.57710648 4.06795656 -11.39436958 3.82622671 -17 3 C-17 2.67 -17 2.34 -17 2 C-11.19233704 0.4943096 -6.0018137 -0.21824777 0 0 Z " fill="#9FCA47" transform="translate(89,0)"/>
<path d="M0 0 C2.97 0 5.94 0 9 0 C9.33 0.99 9.66 1.98 10 3 C10.78375 3.103125 11.5675 3.20625 12.375 3.3125 C15 4 15 4 17 7 C11.14340094 5.33846988 5.5409866 3.52958084 0 1 C0 0.67 0 0.34 0 0 Z " fill="#A3C950" transform="translate(49,489)"/>
<path d="M0 0 C0.66 0.33 1.32 0.66 2 1 C0.97137215 6.44567686 -0.24614784 11.11817117 -3 16 C-3.33 16 -3.66 16 -4 16 C-4 14.02 -4 12.04 -4 10 C-3.34 10 -2.68 10 -2 10 C-1.855625 8.906875 -1.71125 7.81375 -1.5625 6.6875 C-1 3 -1 3 0 0 Z " fill="#A7CA58" transform="translate(493,433)"/>
<path d="M0 0 C-5.66861169 3.77907446 -12.20596221 6.28483813 -19 7 C-19 6.34 -19 5.68 -19 5 C-15.7 4.34 -12.4 3.68 -9 3 C-9 2.34 -9 1.68 -9 1 C-5.92677456 0.08941469 -3.19902639 -0.08886184 0 0 Z " fill="#A8C959" transform="translate(449,490)"/>
<path d="M0 0 C-2.53645881 3.10011632 -5.15184135 4.0575938 -9 5 C-11.375 4.625 -11.375 4.625 -13 4 C-8.62340682 -0.37659318 -5.88808394 -0.39919213 0 0 Z " fill="#E4F2CF" transform="translate(435,467)"/>
<path d="M0 0 C0.66 0.99 1.32 1.98 2 3 C0.35 5.97 -1.3 8.94 -3 12 C-4.22400998 7.10396009 -3.17036065 5.42419671 -1 1 C-0.67 0.67 -0.34 0.34 0 0 Z " fill="#9BC542" transform="translate(37,51)"/>
<path d="M0 0 C0.763125 0.309375 1.52625 0.61875 2.3125 0.9375 C4.18789677 1.67893593 6.08684652 2.36228217 8 3 C10.69670342 5.93464784 12.19030232 8.12501823 13 12 C12.56429688 11.62488281 12.12859375 11.24976563 11.6796875 10.86328125 C11.08414062 10.35152344 10.48859375 9.83976562 9.875 9.3125 C8.92560547 8.49652344 8.92560547 8.49652344 7.95703125 7.6640625 C6.17588663 6.14955629 4.37365561 4.66581794 2.5625 3.1875 C1.716875 2.465625 0.87125 1.74375 0 1 C0 0.67 0 0.34 0 0 Z " fill="#A2C551" transform="translate(444,37)"/>
<path d="M0 0 C0.33 0 0.66 0 1 0 C1.2358396 5.77807024 0.86783046 10.51324804 -1 16 C-1.66 16 -2.32 16 -3 16 C-2.40984815 10.49191603 -1.43336231 5.35121931 0 0 Z " fill="#A6C95A" transform="translate(472,416)"/>
<path d="M0 0 C12.66970387 -0.18451025 12.66970387 -0.18451025 18 1 C18 1.33 18 1.66 18 2 C12.06 2.495 12.06 2.495 6 3 C6 2.34 6 1.68 6 1 C4.02 1 2.04 1 0 1 C0 0.67 0 0.34 0 0 Z " fill="#EEF6DD" transform="translate(406,27)"/>
<path d="M0 0 C4 2 4 2 5.08203125 4.0234375 C5.32308594 4.79945312 5.56414062 5.57546875 5.8125 6.375 C6.06644531 7.14585938 6.32039063 7.91671875 6.58203125 8.7109375 C7 11 7 11 6 15 C4.02 10.05 2.04 5.1 0 0 Z " fill="#A0C450" transform="translate(464,59)"/>
<path d="M0 0 C5.452999 1.56818272 9.76486783 3.03810217 14 7 C13.01 7.33 12.02 7.66 11 8 C10.67 7.01 10.34 6.02 10 5 C9.2575 4.855625 8.515 4.71125 7.75 4.5625 C6.8425 4.376875 5.935 4.19125 5 4 C4.2575 3.87625 3.515 3.7525 2.75 3.625 C2.1725 3.41875 1.595 3.2125 1 3 C0.67 2.01 0.34 1.02 0 0 Z " fill="#B1D169" transform="translate(440,6)"/>
<path d="M0 0 C1.29315061 0.95632999 2.58446853 1.91513851 3.875 2.875 C4.59429687 3.40867187 5.31359375 3.94234375 6.0546875 4.4921875 C8 6 8 6 10 8 C7.8125 8.375 7.8125 8.375 5 8 C2.91167347 6.17130326 1.61663209 4.30947441 0 2 C0 1.34 0 0.68 0 0 Z " fill="#9DC346" transform="translate(47,456)"/>
<path d="M0 0 C3.5786304 1.65167557 6.74820188 3.78286492 10 6 C8.02 6.99 8.02 6.99 6 8 C6 7.01 6 6.02 6 5 C5.071875 4.7834375 5.071875 4.7834375 4.125 4.5625 C2 4 2 4 0 3 C0 2.01 0 1.02 0 0 Z " fill="#E5F3D0" transform="translate(438,34)"/>
<path d="M0 0 C4.43458973 1.3937282 6.87378374 3.60582235 10 7 C5.61537866 6.49890042 3.1999003 5.01704885 0 2 C0 1.34 0 0.68 0 0 Z " fill="#A9CB60" transform="translate(454,13)"/>
<path d="M0 0 C0.66 1.32 1.32 2.64 2 4 C2.66 4 3.32 4 4 4 C4.33 7.63 4.66 11.26 5 15 C3.25050228 12.37575342 2.34610019 10.44272784 1.375 7.5 C0.98441406 6.33984375 0.98441406 6.33984375 0.5859375 5.15625 C0 3 0 3 0 0 Z " fill="#ADCD64" transform="translate(3,428)"/>
<path d="M0 0 C0.33 0 0.66 0 1 0 C1.16682272 4.92127034 1.24828052 8.50343896 -1 13 C-1.33 13 -1.66 13 -2 13 C-2.16682272 8.07872966 -2.24828052 4.49656104 0 0 Z " fill="#E5F2CC" transform="translate(30,72)"/>
<path d="M0 0 C2.34914492 2.34914492 2.73140357 3.95679446 3.625 7.125 C3.88539063 8.03507812 4.14578125 8.94515625 4.4140625 9.8828125 C4.70410156 10.93082031 4.70410156 10.93082031 5 12 C3.046875 11.3203125 3.046875 11.3203125 1 10 C0.390625 7.6171875 0.390625 7.6171875 0.25 4.875 C0.19328125 3.96492188 0.1365625 3.05484375 0.078125 2.1171875 C0.05234375 1.41851562 0.0265625 0.71984375 0 0 Z " fill="#ABCC5F" transform="translate(490,53)"/>
<path d="M0 0 C0.33 0 0.66 0 1 0 C1 2.31 1 4.62 1 7 C0.01 7 -0.98 7 -2 7 C-2 7.66 -2 8.32 -2 9 C-2.66 9 -3.32 9 -4 9 C-2.94124926 5.59687262 -1.99097846 2.98646769 0 0 Z " fill="#E1EEBE" transform="translate(35,60)"/>
<path d="M0 0 C1.32 1.32 2.64 2.64 4 4 C1.03 6.475 1.03 6.475 -2 9 C-2.33 8.01 -2.66 7.02 -3 6 C-2.01 6 -1.02 6 0 6 C-0.2784375 4.7934375 -0.2784375 4.7934375 -0.5625 3.5625 C-0.706875 2.716875 -0.85125 1.87125 -1 1 C-0.67 0.67 -0.34 0.34 0 0 Z " fill="#A6CB53" transform="translate(467,471)"/>
<path d="M0 0 C-2.64 1.98 -5.28 3.96 -8 6 C-8 4.35 -8 2.7 -8 1 C-4.59449725 -1.06762667 -4.18836538 -1.04709135 0 0 Z " fill="#9DC345" transform="translate(51,42)"/>
<path d="M0 0 C0.66 0.99 1.32 1.98 2 3 C-0.83395931 5.32789515 -2.29511572 6.07377893 -6 7 C-4.02 4.69 -2.04 2.38 0 0 Z " fill="#A8CB5E" transform="translate(453,454)"/>
<path d="M0 0 C0.66 0.33 1.32 0.66 2 1 C1.67 1.99 1.34 2.98 1 4 C-1.06640625 4.73046875 -1.06640625 4.73046875 -3.5625 5.1875 C-4.38878906 5.34605469 -5.21507812 5.50460938 -6.06640625 5.66796875 C-7.02353516 5.83232422 -7.02353516 5.83232422 -8 6 C-5.54460659 3.45154504 -3.16995003 1.6256154 0 0 Z " fill="#E5F2CC" transform="translate(64,32)"/>
<path d="M0 0 C1.2065625 0.0309375 1.2065625 0.0309375 2.4375 0.0625 C0.81410195 1.77134005 -0.85569053 3.43696717 -2.5625 5.0625 C-3.2225 5.0625 -3.8825 5.0625 -4.5625 5.0625 C-3.43829114 0.08386076 -3.43829114 0.08386076 0 0 Z " fill="#A3C750" transform="translate(461.5625,479.9375)"/>
<path d="M0 0 C5.875 4.625 5.875 4.625 7 8 C6.34 8 5.68 8 5 8 C5 7.34 5 6.68 5 6 C3.68 5.67 2.36 5.34 1 5 C0.67 3.35 0.34 1.7 0 0 Z " fill="#AECE65" transform="translate(471,26)"/>
<path d="M0 0 C4.51720311 -0.36625971 4.51720311 -0.36625971 6.8125 1.375 C8 3 8 3 8 5 C4.62496331 3.8141763 2.35277269 2.72426311 0 0 Z " fill="#A6CA54" transform="translate(40,483)"/>
<path d="M0 0 C1.32 0.33 2.64 0.66 4 1 C4.12375 1.804375 4.2475 2.60875 4.375 3.4375 C4.684375 4.7059375 4.684375 4.7059375 5 6 C5.66 6.33 6.32 6.66 7 7 C6.01 7 5.02 7 4 7 C2.02 3.535 2.02 3.535 0 0 Z " fill="#E9F7D9" transform="translate(37,442)"/>
<path d="M0 0 C0.6875 1.8125 0.6875 1.8125 1 4 C-0.3125 5.75 -0.3125 5.75 -2 7 C-2.66 7 -3.32 7 -4 7 C-2.92598892 4.08482708 -2.22189824 2.22189824 0 0 Z " fill="#E1F0C4" transform="translate(41,51)"/>
<path d="M0 0 C0.66 0.99 1.32 1.98 2 3 C0.02 4.32 -1.96 5.64 -4 7 C-4 4 -4 4 -2 1.8125 C-1.34 1.214375 -0.68 0.61625 0 0 Z " fill="#DEEEC3" transform="translate(47,44)"/>
<path d="M0 0 C1.98 0 3.96 0 6 0 C5.67 0.66 5.34 1.32 5 2 C2.93359375 2.4140625 2.93359375 2.4140625 0.4375 2.625 C-0.38878906 2.69976562 -1.21507812 2.77453125 -2.06640625 2.8515625 C-3.02353516 2.92503906 -3.02353516 2.92503906 -4 3 C-2.68 2.67 -1.36 2.34 0 2 C0 1.34 0 0.68 0 0 Z " fill="#A0CC46" transform="translate(416,497)"/>
<path d="M0 0 C2.31 0 4.62 0 7 0 C7.33 0.99 7.66 1.98 8 3 C2.25 2.25 2.25 2.25 0 0 Z " fill="#E7F2CF" transform="translate(70,469)"/>
<path d="M0 0 C1 4 1 4 0 6 C-2.5625 6.625 -2.5625 6.625 -5 7 C-3.35 4.69 -1.7 2.38 0 0 Z " fill="#A5C855" transform="translate(461,445)"/>
<path d="M0 0 C0.66 0.33 1.32 0.66 2 1 C0.35 2.65 -1.3 4.3 -3 6 C-3.99 5.67 -4.98 5.34 -6 5 C-4.02 3.35 -2.04 1.7 0 0 Z " fill="#E4F0C8" transform="translate(54,38)"/>
</svg>
